<svg width="209" height="209" viewBox="0 0 209 209" fill="none" xmlns="http://www.w3.org/2000/svg">
<g clip-path="url(#clip0_1269_4642)">
<path d="M418 0C418 55.4302 395.98 108.59 356.785 147.785C317.59 186.98 264.43 209 209 209C153.57 209 100.41 186.98 61.2147 147.785C22.0196 108.59 8.36974e-06 55.4303 0 3.15581e-05L209 0H418Z" stroke="#D9D9D9"/>
<path d="M365 0C365 41.3738 348.564 81.053 319.309 110.309C290.053 139.564 250.374 156 209 156C167.626 156 127.947 139.564 98.6914 110.309C69.4357 81.053 53 41.3738 53 2.35553e-05L209 0H365Z" stroke="#D9D9D9"/>
</g>
<defs>
<clipPath id="clip0_1269_4642">
<rect width="209" height="209" fill="white"/>
</clipPath>
</defs>
</svg>
