<svg width="209" height="209" viewBox="0 0 209 209" fill="none" xmlns="http://www.w3.org/2000/svg">
<g clip-path="url(#clip0_1269_4644)">
<path d="M209 0C209 55.4302 186.98 108.59 147.785 147.785C108.59 186.98 55.4303 209 1.57791e-05 209C-55.4302 209 -108.59 186.98 -147.785 147.785C-186.98 108.59 -209 55.4303 -209 3.15581e-05L0 0H209Z" stroke="#D9D9D9"/>
<path d="M156 0C156 41.3738 139.564 81.053 110.309 110.309C81.053 139.564 41.3738 156 1.17777e-05 156C-41.3738 156 -81.053 139.564 -110.309 110.309C-139.564 81.053 -156 41.3738 -156 2.35553e-05L0 0H156Z" stroke="#D9D9D9"/>
</g>
<defs>
<clipPath id="clip0_1269_4644">
<rect width="209" height="209" fill="white"/>
</clipPath>
</defs>
</svg>
