<svg width="29" height="56" viewBox="0 0 29 56" fill="none" xmlns="http://www.w3.org/2000/svg">
<path d="M14.1536 5.16641C13.1587 6.48732 9.4246 12.3044 12.9809 21.3349L19.0605 34.6202C19.8988 36.4534 20.3941 38.4136 20.5846 40.4289C21.1604 46.5338 18.5016 52.1393 13.7895 55.9072C13.7514 55.9411 13.6964 55.8818 13.7303 55.8437C15.0427 54.3492 19.0181 48.837 16.4822 39.163L15.5126 36.627L11.8463 29.3069C9.4754 24.5017 7.69725 18.5957 8.92925 13.2358C9.67439 9.99706 11.4949 7.16471 14.0859 5.1029C14.124 5.07327 14.179 5.12407 14.1494 5.16218L14.1536 5.16641Z" fill="url(#paint0_linear_1_39)"/>
<path d="M20.1909 10.4589C20.1909 10.4589 18.019 13.9559 20.3729 18.1303C22.7268 22.3047 26.0969 27.9186 26.0969 27.9186C26.0969 27.9186 28.9292 33.0329 27.7141 36.6231C26.4991 40.2133 24.6024 40.6366 24.6024 40.6366C24.6024 40.6366 26.0926 37.7281 25.3221 35.4292C24.5516 33.1303 23.9038 32.1184 23.9038 32.1184C22.8666 30.4842 21.7616 28.8754 20.7963 27.2031C19.886 25.6282 18.9843 24.0448 18.0994 22.4529C17.3077 21.0346 16.7827 19.5528 16.6854 17.9186C16.66 17.4699 16.66 17.0253 16.6981 16.5766C16.7319 16.1616 16.8928 15.7129 16.8928 15.3064C17.3501 13.3293 18.5694 11.6612 20.1866 10.4589H20.1909Z" fill="url(#paint1_linear_1_39)"/>
<path d="M3.61115 17.9738C3.61115 17.9738 1.40539 21.2846 3.55611 25.3913C5.70259 29.498 8.78472 35.0229 8.78472 35.0229C8.78472 35.0229 11.3673 40.0526 10.0845 43.4819C8.80166 46.9111 6.96 47.2625 6.96 47.2625C6.96 47.2625 8.48837 44.4979 7.81098 42.2541C7.13358 40.0102 6.5451 39.0111 6.5451 39.0111C5.59252 37.4023 4.57643 35.8104 3.69159 34.1677C2.85755 32.6182 2.04045 31.0602 1.23181 29.498C0.512086 28.1051 0.0506125 26.6529 0.00404189 25.0738C-0.00865919 24.6419 0.00827443 24.2101 0.0590788 23.7782C0.105649 23.3803 0.274998 22.9484 0.287699 22.5547C0.791508 20.658 2.01928 19.0873 3.61962 17.9738H3.61115Z" fill="url(#paint2_linear_1_39)"/>
<path d="M13.0143 8.07525C13.463 6.01767 16.2784 3.15146 16.2784 3.15146C13.6705 4.23106 11.6298 6.98296 11.6298 6.98296C11.4817 4.21835 13.4207 2.37246 13.4207 2.37246C16.2784 -1.1034 20.3343 0.19211 21.0244 0.446132C21.071 0.463067 21.0837 0.518105 21.0541 0.556208C20.9186 0.721322 20.6434 1.13622 20.618 1.17009C20.22 1.72894 19.8305 2.30472 19.4961 2.90591C18.7806 4.20142 18.2175 5.61971 17.1929 6.712C16.9643 6.95755 16.7145 7.18194 16.4393 7.37669C15.4486 8.08795 14.187 8.12182 13.0143 8.07948V8.07525Z" fill="url(#paint3_linear_1_39)"/>
<defs>
<linearGradient id="paint0_linear_1_39" x1="17.4638" y1="4.29491" x2="-6.95978" y2="40.1926" gradientUnits="userSpaceOnUse">
<stop offset="0.00628171" stop-color="#00E297"/>
<stop offset="1" stop-color="#17A1A5"/>
</linearGradient>
<linearGradient id="paint1_linear_1_39" x1="25.0256" y1="9.98437" x2="13.6744" y2="36.2633" gradientUnits="userSpaceOnUse">
<stop offset="0.00628171" stop-color="#00E297"/>
<stop offset="1" stop-color="#17A1A5"/>
</linearGradient>
<linearGradient id="paint2_linear_1_39" x1="7.68966" y1="17.5133" x2="-3.72933" y2="42.5735" gradientUnits="userSpaceOnUse">
<stop offset="0.00628171" stop-color="#00E297"/>
<stop offset="1" stop-color="#17A1A5"/>
</linearGradient>
<linearGradient id="paint3_linear_1_39" x1="18.5797" y1="-0.127123" x2="17.4386" y2="8.07482" gradientUnits="userSpaceOnUse">
<stop offset="0.00628171" stop-color="#00E297"/>
<stop offset="1" stop-color="#17A1A5"/>
</linearGradient>
</defs>
</svg>
