<svg width="1462" height="406" viewBox="0 0 1462 406" fill="none" xmlns="http://www.w3.org/2000/svg">
<path d="M731 405.493H1462V367.332C1461.84 358.794 1460.84 348.942 1456.7 341.328C1449.23 327.615 1440.47 320.108 1420.39 314.184C1402.12 308.794 1379.78 310.815 1368.61 313.511C1351.07 317.742 1341.2 320.923 1316.84 319.575C1291.04 318.147 1282.32 315.532 1265.13 304.932C1244.55 292.243 1230.97 275.936 1212.37 261.973C1197.31 250.659 1175.74 243.26 1153.13 241.629C1125.48 239.641 1098.23 245.949 1071 249.736C1043.77 253.523 1012.85 254.291 990.82 243.018C967.692 231.184 961.641 210.133 956.483 191.056C948.066 159.93 936.117 127.099 901.81 105.145C888.104 96.3776 871.281 89.6996 859.534 79.7601C840.914 63.9984 837.899 42.6436 837.492 22.6095V0.5L731 0.823455L624.508 0.5V22.6163C624.101 42.6436 621.086 64.0051 602.466 79.7668C590.719 89.7063 573.896 96.3843 560.19 105.151C525.883 127.099 513.934 159.93 505.517 191.062C500.359 210.14 494.308 231.191 471.18 243.024C449.149 254.298 418.234 253.537 391.004 249.743C363.774 245.956 336.534 239.641 308.868 241.636C286.258 243.26 264.693 250.666 249.626 261.98C231.026 275.949 217.442 292.25 196.873 304.939C179.684 315.539 170.963 318.154 145.164 319.582C120.798 320.93 110.929 317.749 93.3853 313.517C82.2172 310.822 59.8811 308.8 41.6061 314.191C21.534 320.115 12.762 327.621 5.29975 341.335C1.15742 348.942 0.162444 358.801 0 367.339V405.5H731V405.493Z" fill="white"/>
</svg>
