<svg width="1440" height="406" viewBox="0 0 1440 406" fill="none" xmlns="http://www.w3.org/2000/svg">
<path d="M720 405.493H1440V367.332C1439.84 358.794 1438.86 348.942 1434.78 341.328C1427.42 327.615 1418.79 320.108 1399.02 314.184C1381.02 308.794 1359.02 310.815 1348.02 313.511C1330.74 317.742 1321.02 320.923 1297.02 319.575C1271.61 318.147 1263.02 315.532 1246.09 304.932C1225.82 292.243 1212.45 275.936 1194.13 261.973C1179.29 250.659 1158.05 243.26 1135.78 241.629C1108.54 239.641 1081.7 245.949 1054.88 249.736C1028.06 253.523 997.61 254.291 975.91 243.018C953.13 231.184 947.17 210.133 942.09 191.056C933.8 159.93 922.03 127.099 888.24 105.145C874.74 96.3776 858.17 89.6996 846.6 79.7601C828.26 63.9984 825.29 42.6436 824.89 22.6095V0.5L720 0.823455L615.11 0.5V22.6163C614.71 42.6436 611.74 64.0051 593.4 79.7668C581.83 89.7063 565.26 96.3843 551.76 105.151C517.97 127.099 506.2 159.93 497.91 191.062C492.83 210.14 486.87 231.191 464.09 243.024C442.39 254.298 411.94 253.537 385.12 249.743C358.3 245.956 331.47 239.641 304.22 241.636C281.95 243.26 260.71 250.666 245.87 261.98C227.55 275.949 214.17 292.25 193.91 304.939C176.98 315.539 168.39 318.154 142.98 319.582C118.98 320.93 109.26 317.749 91.98 313.517C80.98 310.822 58.98 308.8 40.98 314.191C21.21 320.115 12.57 327.621 5.22 341.335C1.14 348.942 0.16 358.801 0 367.339V405.5H720V405.493Z" fill="white"/>
</svg>
