<svg width="1440" height="601" viewBox="0 0 1440 601" fill="none" xmlns="http://www.w3.org/2000/svg">
<g filter="url(#filter0_i_3_5)">
<path d="M720 600.99H1440V544.361C1439.84 531.691 1438.86 517.071 1434.78 505.772C1427.42 485.422 1418.79 474.282 1399.02 465.492C1381.02 457.492 1359.02 460.492 1348.02 464.492C1330.74 470.772 1321.02 475.492 1297.02 473.492C1271.61 471.372 1263.02 467.492 1246.09 451.763C1225.82 432.933 1212.45 408.733 1194.13 388.014C1179.29 371.224 1158.05 360.244 1135.78 357.824C1108.54 354.874 1081.7 364.234 1054.88 369.854C1028.06 375.474 997.61 376.614 975.91 359.884C953.13 342.324 947.17 311.085 942.09 282.775C933.8 236.586 922.03 187.867 888.24 155.287C874.74 142.278 858.17 132.368 846.6 117.618C828.26 94.2284 825.29 62.539 824.89 32.8095V0L720 0.479992L615.11 0V32.8195C614.71 62.539 611.74 94.2384 593.4 117.628C581.83 132.378 565.26 142.288 551.76 155.297C517.97 187.867 506.2 236.586 497.91 282.785C492.83 311.095 486.87 342.334 464.09 359.894C442.39 376.624 411.94 375.494 385.12 369.864C358.3 364.244 331.47 354.874 304.22 357.834C281.95 360.244 260.71 371.234 245.87 388.024C227.55 408.753 214.17 432.943 193.91 451.773C176.98 467.502 168.39 471.382 142.98 473.502C118.98 475.502 109.26 470.782 91.98 464.502C80.98 460.502 58.98 457.502 40.98 465.502C21.21 474.292 12.57 485.432 5.22 505.782C1.14 517.071 0.16 531.701 0 544.371V601H720V600.99Z" fill="white"/>
</g>
<defs>
<filter id="filter0_i_3_5" x="0" y="0" width="1440" height="605" filterUnits="userSpaceOnUse" color-interpolation-filters="sRGB">
<feFlood flood-opacity="0" result="BackgroundImageFix"/>
<feBlend mode="normal" in="SourceGraphic" in2="BackgroundImageFix" result="shape"/>
<feColorMatrix in="SourceAlpha" type="matrix" values="0 0 0 0 0 0 0 0 0 0 0 0 0 0 0 0 0 0 127 0" result="hardAlpha"/>
<feOffset dy="4"/>
<feGaussianBlur stdDeviation="2"/>
<feComposite in2="hardAlpha" operator="arithmetic" k2="-1" k3="1"/>
<feColorMatrix type="matrix" values="0 0 0 0 0 0 0 0 0 0 0 0 0 0 0 0 0 0 0.25 0"/>
<feBlend mode="normal" in2="shape" result="effect1_innerShadow_3_5"/>
</filter>
</defs>
</svg>
